<?xml version="1.0" encoding="UTF-8"?>
<svg version="1.1" xmlns="http://www.w3.org/2000/svg" width="32" height="32">
<path d="M0 0 C4.76611328 0.70898438 4.76611328 0.70898438 6.87109375 3.328125 C7.38800781 4.29234375 7.90492187 5.2565625 8.4375 6.25 C9.23994141 7.68085938 9.23994141 7.68085938 10.05859375 9.140625 C11 12 11 12 10.3359375 14.52734375 C9.89507813 15.34332031 9.45421875 16.15929687 9 17 C8.56042969 17.88300781 8.12085937 18.76601563 7.66796875 19.67578125 C7.17941406 20.54589844 6.69085937 21.41601562 6.1875 22.3125 C5.46626953 23.63701172 5.46626953 23.63701172 4.73046875 24.98828125 C3 27 3 27 0.42578125 27.29296875 C-0.77498047 27.14794922 -0.77498047 27.14794922 -2 27 C-2.66 27 -3.32 27 -4 27 C-7.33333333 27 -10.66666667 27 -14 27 C-13.322227 23.438944 -11.85232971 20.71280921 -10.05859375 17.578125 C-9.47529297 16.55332031 -8.89199219 15.52851563 -8.29101562 14.47265625 C-7.37352539 12.87744141 -7.37352539 12.87744141 -6.4375 11.25 C-5.82197266 10.17105469 -5.20644531 9.09210937 -4.57226562 7.98046875 C-3.05244312 5.31783398 -1.52821656 2.65782304 0 0 Z M-3 14 C-3.33 15.32 -3.66 16.64 -4 18 C-3.01 17.01 -2.02 16.02 -1 15 C-1.66 14.67 -2.32 14.34 -3 14 Z M-5 18 C-4 20 -4 20 -4 20 Z M1 18 C0.34 19.65 -0.32 21.3 -1 23 C-0.01 22.01 0.98 21.02 2 20 C1.67 19.34 1.34 18.68 1 18 Z M-6 20 C-6.66 21.65 -7.32 23.3 -8 25 C-7.01 24.01 -6.02 23.02 -5 22 C-5.33 21.34 -5.66 20.68 -6 20 Z M-2 23 C-1 25 -1 25 -1 25 Z " fill="#FE3838" transform="translate(14,3)"/>
<path d="M0 0 C5.03035477 2.51517739 5.58250626 4.07867345 8 9 C8 9.99 8 10.98 8 12 C3.38 12 -1.24 12 -6 12 C-4.02 8.04 -2.04 4.08 0 0 Z " fill="#0E0F0F" transform="translate(24,18)"/>
</svg>
